<mxfile host="app.diagrams.net" modified="2022-02-27T13:53:30.271Z" agent="5.0 (Macintosh; Intel Mac OS X 10_15_7) AppleWebKit/537.36 (KHTML, like Gecko) Chrome/98.0.4758.109 Safari/537.36" etag="4_8UnJbg_B3UEpaqUQyW" version="16.6.4" type="github" pages="2">
  <diagram name="流程图" id="e7e014a7-5840-1c2e-5031-d8a46d1fe8dd">
    <mxGraphModel dx="946" dy="532" grid="1" gridSize="10" guides="1" tooltips="1" connect="1" arrows="1" fold="1" page="1" pageScale="1" pageWidth="1169" pageHeight="826" background="none" math="0" shadow="0">
      <root>
        <mxCell id="0" />
        <mxCell id="1" parent="0" />
        <mxCell id="F1qQGjA14GvTWME7Dink-23" value="" style="edgeStyle=none;rounded=0;orthogonalLoop=1;jettySize=auto;html=1;" parent="1" source="F1qQGjA14GvTWME7Dink-1" target="F1qQGjA14GvTWME7Dink-22" edge="1">
          <mxGeometry relative="1" as="geometry" />
        </mxCell>
        <mxCell id="F1qQGjA14GvTWME7Dink-1" value="开始" style="rounded=1;whiteSpace=wrap;html=1;" parent="1" vertex="1">
          <mxGeometry x="283" y="20" width="120" height="50" as="geometry" />
        </mxCell>
        <mxCell id="F1qQGjA14GvTWME7Dink-13" value="" style="edgeStyle=none;rounded=0;orthogonalLoop=1;jettySize=auto;html=1;" parent="1" source="F1qQGjA14GvTWME7Dink-10" target="F1qQGjA14GvTWME7Dink-11" edge="1">
          <mxGeometry relative="1" as="geometry" />
        </mxCell>
        <mxCell id="F1qQGjA14GvTWME7Dink-14" value="否" style="edgeLabel;html=1;align=center;verticalAlign=middle;resizable=0;points=[];" parent="F1qQGjA14GvTWME7Dink-13" vertex="1" connectable="0">
          <mxGeometry x="-0.1771" y="2" relative="1" as="geometry">
            <mxPoint as="offset" />
          </mxGeometry>
        </mxCell>
        <mxCell id="F1qQGjA14GvTWME7Dink-16" value="" style="edgeStyle=none;rounded=0;orthogonalLoop=1;jettySize=auto;html=1;entryX=-0.05;entryY=0.508;entryDx=0;entryDy=0;entryPerimeter=0;" parent="1" source="F1qQGjA14GvTWME7Dink-10" target="hNifs7jKcNVVLwTx4zm0-2" edge="1">
          <mxGeometry relative="1" as="geometry">
            <mxPoint x="465" y="250" as="targetPoint" />
          </mxGeometry>
        </mxCell>
        <mxCell id="F1qQGjA14GvTWME7Dink-17" value="是" style="edgeLabel;html=1;align=center;verticalAlign=middle;resizable=0;points=[];" parent="F1qQGjA14GvTWME7Dink-16" vertex="1" connectable="0">
          <mxGeometry x="0.0909" y="2" relative="1" as="geometry">
            <mxPoint as="offset" />
          </mxGeometry>
        </mxCell>
        <mxCell id="F1qQGjA14GvTWME7Dink-10" value="是否配置预算&lt;br&gt;控制行为后动作？" style="rhombus;whiteSpace=wrap;html=1;" parent="1" vertex="1">
          <mxGeometry x="280" y="205" width="130" height="90" as="geometry" />
        </mxCell>
        <mxCell id="F1qQGjA14GvTWME7Dink-11" value="结束" style="rounded=1;whiteSpace=wrap;html=1;" parent="1" vertex="1">
          <mxGeometry x="283" y="353" width="120" height="60" as="geometry" />
        </mxCell>
        <mxCell id="F1qQGjA14GvTWME7Dink-24" value="" style="edgeStyle=none;rounded=0;orthogonalLoop=1;jettySize=auto;html=1;" parent="1" source="F1qQGjA14GvTWME7Dink-22" target="F1qQGjA14GvTWME7Dink-10" edge="1">
          <mxGeometry relative="1" as="geometry" />
        </mxCell>
        <mxCell id="F1qQGjA14GvTWME7Dink-22" value="传递业务单据" style="rounded=0;whiteSpace=wrap;html=1;" parent="1" vertex="1">
          <mxGeometry x="283" y="110" width="120" height="60" as="geometry" />
        </mxCell>
        <mxCell id="hNifs7jKcNVVLwTx4zm0-4" value="" style="edgeStyle=orthogonalEdgeStyle;rounded=0;orthogonalLoop=1;jettySize=auto;html=1;" edge="1" parent="1" source="hNifs7jKcNVVLwTx4zm0-2" target="hNifs7jKcNVVLwTx4zm0-3">
          <mxGeometry relative="1" as="geometry" />
        </mxCell>
        <mxCell id="hNifs7jKcNVVLwTx4zm0-5" value="是" style="edgeLabel;html=1;align=center;verticalAlign=middle;resizable=0;points=[];" vertex="1" connectable="0" parent="hNifs7jKcNVVLwTx4zm0-4">
          <mxGeometry x="-0.0991" y="-1" relative="1" as="geometry">
            <mxPoint as="offset" />
          </mxGeometry>
        </mxCell>
        <mxCell id="hNifs7jKcNVVLwTx4zm0-6" style="edgeStyle=orthogonalEdgeStyle;rounded=0;orthogonalLoop=1;jettySize=auto;html=1;exitX=0.5;exitY=1;exitDx=0;exitDy=0;entryX=1;entryY=0.5;entryDx=0;entryDy=0;" edge="1" parent="1" source="hNifs7jKcNVVLwTx4zm0-2" target="F1qQGjA14GvTWME7Dink-11">
          <mxGeometry relative="1" as="geometry" />
        </mxCell>
        <mxCell id="hNifs7jKcNVVLwTx4zm0-7" value="否" style="edgeLabel;html=1;align=center;verticalAlign=middle;resizable=0;points=[];" vertex="1" connectable="0" parent="hNifs7jKcNVVLwTx4zm0-6">
          <mxGeometry x="-0.69" y="2" relative="1" as="geometry">
            <mxPoint as="offset" />
          </mxGeometry>
        </mxCell>
        <mxCell id="hNifs7jKcNVVLwTx4zm0-2" value="是否设置预算&lt;br&gt;维度&lt;br&gt;匹配对应？" style="shape=rhombus;html=1;dashed=0;whitespace=wrap;perimeter=rhombusPerimeter;" vertex="1" parent="1">
          <mxGeometry x="480" y="208.75" width="120" height="82.5" as="geometry" />
        </mxCell>
        <mxCell id="hNifs7jKcNVVLwTx4zm0-9" value="" style="edgeStyle=orthogonalEdgeStyle;rounded=0;orthogonalLoop=1;jettySize=auto;html=1;" edge="1" parent="1" source="hNifs7jKcNVVLwTx4zm0-3" target="hNifs7jKcNVVLwTx4zm0-8">
          <mxGeometry relative="1" as="geometry" />
        </mxCell>
        <mxCell id="hNifs7jKcNVVLwTx4zm0-3" value="转换业务单据模型为标准执行数模型" style="whiteSpace=wrap;html=1;dashed=0;" vertex="1" parent="1">
          <mxGeometry x="670" y="220" width="120" height="60" as="geometry" />
        </mxCell>
        <mxCell id="hNifs7jKcNVVLwTx4zm0-11" style="edgeStyle=orthogonalEdgeStyle;rounded=0;orthogonalLoop=1;jettySize=auto;html=1;entryX=0.5;entryY=1;entryDx=0;entryDy=0;exitX=0.5;exitY=1;exitDx=0;exitDy=0;" edge="1" parent="1" source="hNifs7jKcNVVLwTx4zm0-8" target="F1qQGjA14GvTWME7Dink-11">
          <mxGeometry relative="1" as="geometry">
            <mxPoint x="950" y="480" as="targetPoint" />
            <Array as="points">
              <mxPoint x="900" y="463" />
              <mxPoint x="343" y="463" />
            </Array>
          </mxGeometry>
        </mxCell>
        <mxCell id="hNifs7jKcNVVLwTx4zm0-13" value="" style="edgeStyle=orthogonalEdgeStyle;rounded=0;orthogonalLoop=1;jettySize=auto;html=1;" edge="1" parent="1" source="hNifs7jKcNVVLwTx4zm0-8" target="hNifs7jKcNVVLwTx4zm0-12">
          <mxGeometry relative="1" as="geometry" />
        </mxCell>
        <mxCell id="hNifs7jKcNVVLwTx4zm0-14" value="是" style="edgeLabel;html=1;align=center;verticalAlign=middle;resizable=0;points=[];" vertex="1" connectable="0" parent="hNifs7jKcNVVLwTx4zm0-13">
          <mxGeometry x="-0.0875" y="3" relative="1" as="geometry">
            <mxPoint as="offset" />
          </mxGeometry>
        </mxCell>
        <mxCell id="hNifs7jKcNVVLwTx4zm0-8" value="是否设置预算&lt;br&gt;控制方案？" style="rhombus;whiteSpace=wrap;html=1;dashed=0;" vertex="1" parent="1">
          <mxGeometry x="840" y="202.5" width="120" height="95" as="geometry" />
        </mxCell>
        <mxCell id="hNifs7jKcNVVLwTx4zm0-16" value="" style="edgeStyle=orthogonalEdgeStyle;rounded=0;orthogonalLoop=1;jettySize=auto;html=1;" edge="1" parent="1" source="hNifs7jKcNVVLwTx4zm0-12" target="hNifs7jKcNVVLwTx4zm0-15">
          <mxGeometry relative="1" as="geometry" />
        </mxCell>
        <mxCell id="hNifs7jKcNVVLwTx4zm0-12" value="循环处理没一个控制方案" style="whiteSpace=wrap;html=1;dashed=0;rounded=0;glass=0;sketch=0;shadow=0;" vertex="1" parent="1">
          <mxGeometry x="1030" y="220" width="120" height="60" as="geometry" />
        </mxCell>
        <mxCell id="hNifs7jKcNVVLwTx4zm0-18" value="" style="edgeStyle=orthogonalEdgeStyle;rounded=0;orthogonalLoop=1;jettySize=auto;html=1;" edge="1" parent="1" source="hNifs7jKcNVVLwTx4zm0-15" target="hNifs7jKcNVVLwTx4zm0-17">
          <mxGeometry relative="1" as="geometry" />
        </mxCell>
        <mxCell id="hNifs7jKcNVVLwTx4zm0-15" value="获取发布数、执行数、在途调剂数" style="whiteSpace=wrap;html=1;dashed=0;" vertex="1" parent="1">
          <mxGeometry x="1220" y="220" width="120" height="60" as="geometry" />
        </mxCell>
        <mxCell id="hNifs7jKcNVVLwTx4zm0-19" style="edgeStyle=orthogonalEdgeStyle;rounded=0;orthogonalLoop=1;jettySize=auto;html=1;entryX=0.5;entryY=1;entryDx=0;entryDy=0;exitX=1;exitY=0.5;exitDx=0;exitDy=0;" edge="1" parent="1" source="hNifs7jKcNVVLwTx4zm0-17" target="hNifs7jKcNVVLwTx4zm0-12">
          <mxGeometry relative="1" as="geometry">
            <Array as="points">
              <mxPoint x="1560" y="250" />
              <mxPoint x="1560" y="380" />
              <mxPoint x="1090" y="380" />
            </Array>
          </mxGeometry>
        </mxCell>
        <mxCell id="hNifs7jKcNVVLwTx4zm0-17" value="执行控制逻辑" style="whiteSpace=wrap;html=1;dashed=0;" vertex="1" parent="1">
          <mxGeometry x="1400" y="220" width="120" height="60" as="geometry" />
        </mxCell>
        <mxCell id="hNifs7jKcNVVLwTx4zm0-22" value="" style="endArrow=classic;html=1;rounded=0;" edge="1" parent="1">
          <mxGeometry width="50" height="50" relative="1" as="geometry">
            <mxPoint x="1090" y="380" as="sourcePoint" />
            <mxPoint x="900" y="380" as="targetPoint" />
          </mxGeometry>
        </mxCell>
      </root>
    </mxGraphModel>
  </diagram>
  <diagram id="BG4-rcWx8VcEqRP9i32u" name="取数设置">
    <mxGraphModel dx="946" dy="532" grid="1" gridSize="10" guides="1" tooltips="1" connect="1" arrows="1" fold="1" page="1" pageScale="1" pageWidth="827" pageHeight="1169" math="0" shadow="0">
      <root>
        <mxCell id="yLEd3GpRkxzi_jQ99g2g-0" />
        <mxCell id="yLEd3GpRkxzi_jQ99g2g-1" parent="yLEd3GpRkxzi_jQ99g2g-0" />
        <mxCell id="aO4RC_F3F78ZG80GmeLO-2" value="" style="edgeStyle=orthogonalEdgeStyle;rounded=0;orthogonalLoop=1;jettySize=auto;html=1;" edge="1" parent="yLEd3GpRkxzi_jQ99g2g-1" source="aO4RC_F3F78ZG80GmeLO-0" target="aO4RC_F3F78ZG80GmeLO-1">
          <mxGeometry relative="1" as="geometry" />
        </mxCell>
        <mxCell id="aO4RC_F3F78ZG80GmeLO-3" value="Text" style="edgeLabel;html=1;align=center;verticalAlign=middle;resizable=0;points=[];" vertex="1" connectable="0" parent="aO4RC_F3F78ZG80GmeLO-2">
          <mxGeometry relative="1" as="geometry">
            <mxPoint as="offset" />
          </mxGeometry>
        </mxCell>
        <mxCell id="aO4RC_F3F78ZG80GmeLO-0" value="开始" style="html=1;dashed=0;whitespace=wrap;shape=mxgraph.dfd.start;rounded=0;shadow=0;glass=0;sketch=0;" vertex="1" parent="yLEd3GpRkxzi_jQ99g2g-1">
          <mxGeometry x="370" y="250" width="80" height="30" as="geometry" />
        </mxCell>
        <mxCell id="aO4RC_F3F78ZG80GmeLO-1" value="获取业务单据匹配对应" style="whiteSpace=wrap;html=1;dashed=0;rounded=0;shadow=0;glass=0;sketch=0;" vertex="1" parent="yLEd3GpRkxzi_jQ99g2g-1">
          <mxGeometry x="350" y="345" width="120" height="60" as="geometry" />
        </mxCell>
        <mxCell id="aO4RC_F3F78ZG80GmeLO-4" value="Suppliers" style="shape=table;startSize=30;container=1;collapsible=1;childLayout=tableLayout;fixedRows=1;rowLines=0;fontStyle=1;align=center;resizeLast=1;" vertex="1" collapsed="1" parent="yLEd3GpRkxzi_jQ99g2g-1">
          <mxGeometry x="70" y="270" width="90" height="30" as="geometry">
            <mxRectangle x="70" y="270" width="240" height="130" as="alternateBounds" />
          </mxGeometry>
        </mxCell>
        <mxCell id="aO4RC_F3F78ZG80GmeLO-5" value="" style="shape=tableRow;horizontal=0;startSize=0;swimlaneHead=0;swimlaneBody=0;fillColor=none;collapsible=0;dropTarget=0;points=[[0,0.5],[1,0.5]];portConstraint=eastwest;top=0;left=0;right=0;bottom=1;" vertex="1" parent="aO4RC_F3F78ZG80GmeLO-4">
          <mxGeometry y="30" width="240" height="30" as="geometry" />
        </mxCell>
        <mxCell id="aO4RC_F3F78ZG80GmeLO-6" value="PK" style="shape=partialRectangle;overflow=hidden;connectable=0;fillColor=none;top=0;left=0;bottom=0;right=0;fontStyle=1;" vertex="1" parent="aO4RC_F3F78ZG80GmeLO-5">
          <mxGeometry width="30" height="30" as="geometry">
            <mxRectangle width="30" height="30" as="alternateBounds" />
          </mxGeometry>
        </mxCell>
        <mxCell id="aO4RC_F3F78ZG80GmeLO-7" value="supplier_id int NOT NULL " style="shape=partialRectangle;overflow=hidden;connectable=0;fillColor=none;align=left;top=0;left=0;bottom=0;right=0;spacingLeft=6;fontStyle=5;" vertex="1" parent="aO4RC_F3F78ZG80GmeLO-5">
          <mxGeometry x="30" width="210" height="30" as="geometry">
            <mxRectangle width="210" height="30" as="alternateBounds" />
          </mxGeometry>
        </mxCell>
        <mxCell id="aO4RC_F3F78ZG80GmeLO-8" value="" style="shape=tableRow;horizontal=0;startSize=0;swimlaneHead=0;swimlaneBody=0;fillColor=none;collapsible=0;dropTarget=0;points=[[0,0.5],[1,0.5]];portConstraint=eastwest;top=0;left=0;right=0;bottom=0;" vertex="1" parent="aO4RC_F3F78ZG80GmeLO-4">
          <mxGeometry y="60" width="240" height="30" as="geometry" />
        </mxCell>
        <mxCell id="aO4RC_F3F78ZG80GmeLO-9" value="" style="shape=partialRectangle;overflow=hidden;connectable=0;fillColor=none;top=0;left=0;bottom=0;right=0;" vertex="1" parent="aO4RC_F3F78ZG80GmeLO-8">
          <mxGeometry width="30" height="30" as="geometry">
            <mxRectangle width="30" height="30" as="alternateBounds" />
          </mxGeometry>
        </mxCell>
        <mxCell id="aO4RC_F3F78ZG80GmeLO-10" value="supplier_name char(50) NOT NULL" style="shape=partialRectangle;overflow=hidden;connectable=0;fillColor=none;align=left;top=0;left=0;bottom=0;right=0;spacingLeft=6;" vertex="1" parent="aO4RC_F3F78ZG80GmeLO-8">
          <mxGeometry x="30" width="210" height="30" as="geometry">
            <mxRectangle width="210" height="30" as="alternateBounds" />
          </mxGeometry>
        </mxCell>
        <mxCell id="aO4RC_F3F78ZG80GmeLO-11" value="" style="shape=tableRow;horizontal=0;startSize=0;swimlaneHead=0;swimlaneBody=0;fillColor=none;collapsible=0;dropTarget=0;points=[[0,0.5],[1,0.5]];portConstraint=eastwest;top=0;left=0;right=0;bottom=0;" vertex="1" parent="aO4RC_F3F78ZG80GmeLO-4">
          <mxGeometry y="90" width="240" height="30" as="geometry" />
        </mxCell>
        <mxCell id="aO4RC_F3F78ZG80GmeLO-12" value="" style="shape=partialRectangle;overflow=hidden;connectable=0;fillColor=none;top=0;left=0;bottom=0;right=0;" vertex="1" parent="aO4RC_F3F78ZG80GmeLO-11">
          <mxGeometry width="30" height="30" as="geometry">
            <mxRectangle width="30" height="30" as="alternateBounds" />
          </mxGeometry>
        </mxCell>
        <mxCell id="aO4RC_F3F78ZG80GmeLO-13" value="contact_name char(50)" style="shape=partialRectangle;overflow=hidden;connectable=0;fillColor=none;align=left;top=0;left=0;bottom=0;right=0;spacingLeft=6;" vertex="1" parent="aO4RC_F3F78ZG80GmeLO-11">
          <mxGeometry x="30" width="210" height="30" as="geometry">
            <mxRectangle width="210" height="30" as="alternateBounds" />
          </mxGeometry>
        </mxCell>
        <mxCell id="aO4RC_F3F78ZG80GmeLO-14" value="Customers" style="shape=table;startSize=30;container=1;collapsible=1;childLayout=tableLayout;fixedRows=1;rowLines=0;fontStyle=1;align=center;resizeLast=1;" vertex="1" collapsed="1" parent="yLEd3GpRkxzi_jQ99g2g-1">
          <mxGeometry x="500" y="230" width="100" height="30" as="geometry">
            <mxRectangle x="500" y="230" width="310" height="300" as="alternateBounds" />
          </mxGeometry>
        </mxCell>
        <mxCell id="aO4RC_F3F78ZG80GmeLO-15" value="" style="shape=tableRow;horizontal=0;startSize=0;swimlaneHead=0;swimlaneBody=0;fillColor=none;collapsible=0;dropTarget=0;points=[[0,0.5],[1,0.5]];portConstraint=eastwest;top=0;left=0;right=0;bottom=1;" vertex="1" parent="aO4RC_F3F78ZG80GmeLO-14">
          <mxGeometry y="30" width="310" height="30" as="geometry" />
        </mxCell>
        <mxCell id="aO4RC_F3F78ZG80GmeLO-16" value="PK" style="shape=partialRectangle;overflow=hidden;connectable=0;fillColor=none;top=0;left=0;bottom=0;right=0;fontStyle=1;" vertex="1" parent="aO4RC_F3F78ZG80GmeLO-15">
          <mxGeometry width="30" height="30" as="geometry">
            <mxRectangle width="30" height="30" as="alternateBounds" />
          </mxGeometry>
        </mxCell>
        <mxCell id="aO4RC_F3F78ZG80GmeLO-17" value="customer_id int NOT NULL " style="shape=partialRectangle;overflow=hidden;connectable=0;fillColor=none;align=left;top=0;left=0;bottom=0;right=0;spacingLeft=6;fontStyle=5;" vertex="1" parent="aO4RC_F3F78ZG80GmeLO-15">
          <mxGeometry x="30" width="280" height="30" as="geometry">
            <mxRectangle width="280" height="30" as="alternateBounds" />
          </mxGeometry>
        </mxCell>
        <mxCell id="aO4RC_F3F78ZG80GmeLO-18" value="" style="shape=tableRow;horizontal=0;startSize=0;swimlaneHead=0;swimlaneBody=0;fillColor=none;collapsible=0;dropTarget=0;points=[[0,0.5],[1,0.5]];portConstraint=eastwest;top=0;left=0;right=0;bottom=0;" vertex="1" parent="aO4RC_F3F78ZG80GmeLO-14">
          <mxGeometry y="60" width="310" height="30" as="geometry" />
        </mxCell>
        <mxCell id="aO4RC_F3F78ZG80GmeLO-19" value="" style="shape=partialRectangle;overflow=hidden;connectable=0;fillColor=none;top=0;left=0;bottom=0;right=0;" vertex="1" parent="aO4RC_F3F78ZG80GmeLO-18">
          <mxGeometry width="30" height="30" as="geometry">
            <mxRectangle width="30" height="30" as="alternateBounds" />
          </mxGeometry>
        </mxCell>
        <mxCell id="aO4RC_F3F78ZG80GmeLO-20" value="customer_name char(50) NOT NULL" style="shape=partialRectangle;overflow=hidden;connectable=0;fillColor=none;align=left;top=0;left=0;bottom=0;right=0;spacingLeft=6;" vertex="1" parent="aO4RC_F3F78ZG80GmeLO-18">
          <mxGeometry x="30" width="280" height="30" as="geometry">
            <mxRectangle width="280" height="30" as="alternateBounds" />
          </mxGeometry>
        </mxCell>
        <mxCell id="aO4RC_F3F78ZG80GmeLO-21" value="" style="shape=tableRow;horizontal=0;startSize=0;swimlaneHead=0;swimlaneBody=0;fillColor=none;collapsible=0;dropTarget=0;points=[[0,0.5],[1,0.5]];portConstraint=eastwest;top=0;left=0;right=0;bottom=0;" vertex="1" parent="aO4RC_F3F78ZG80GmeLO-14">
          <mxGeometry y="90" width="310" height="30" as="geometry" />
        </mxCell>
        <mxCell id="aO4RC_F3F78ZG80GmeLO-22" value="" style="shape=partialRectangle;overflow=hidden;connectable=0;fillColor=none;top=0;left=0;bottom=0;right=0;" vertex="1" parent="aO4RC_F3F78ZG80GmeLO-21">
          <mxGeometry width="30" height="30" as="geometry">
            <mxRectangle width="30" height="30" as="alternateBounds" />
          </mxGeometry>
        </mxCell>
        <mxCell id="aO4RC_F3F78ZG80GmeLO-23" value="address char(50)" style="shape=partialRectangle;overflow=hidden;connectable=0;fillColor=none;align=left;top=0;left=0;bottom=0;right=0;spacingLeft=6;" vertex="1" parent="aO4RC_F3F78ZG80GmeLO-21">
          <mxGeometry x="30" width="280" height="30" as="geometry">
            <mxRectangle width="280" height="30" as="alternateBounds" />
          </mxGeometry>
        </mxCell>
        <mxCell id="aO4RC_F3F78ZG80GmeLO-24" value="" style="shape=tableRow;horizontal=0;startSize=0;swimlaneHead=0;swimlaneBody=0;fillColor=none;collapsible=0;dropTarget=0;points=[[0,0.5],[1,0.5]];portConstraint=eastwest;top=0;left=0;right=0;bottom=0;" vertex="1" parent="aO4RC_F3F78ZG80GmeLO-14">
          <mxGeometry y="120" width="310" height="100" as="geometry" />
        </mxCell>
        <mxCell id="aO4RC_F3F78ZG80GmeLO-25" value="" style="shape=partialRectangle;overflow=hidden;connectable=0;fillColor=none;top=0;left=0;bottom=0;right=0;" vertex="1" parent="aO4RC_F3F78ZG80GmeLO-24">
          <mxGeometry width="30" height="100" as="geometry">
            <mxRectangle width="30" height="100" as="alternateBounds" />
          </mxGeometry>
        </mxCell>
        <mxCell id="aO4RC_F3F78ZG80GmeLO-26" value="city char(50)" style="shape=partialRectangle;overflow=hidden;connectable=0;fillColor=none;align=left;top=0;left=0;bottom=0;right=0;spacingLeft=6;" vertex="1" parent="aO4RC_F3F78ZG80GmeLO-24">
          <mxGeometry x="30" width="280" height="100" as="geometry">
            <mxRectangle width="280" height="100" as="alternateBounds" />
          </mxGeometry>
        </mxCell>
        <mxCell id="aO4RC_F3F78ZG80GmeLO-27" value="" style="shape=tableRow;horizontal=0;startSize=0;swimlaneHead=0;swimlaneBody=0;fillColor=none;collapsible=0;dropTarget=0;points=[[0,0.5],[1,0.5]];portConstraint=eastwest;top=0;left=0;right=0;bottom=0;" vertex="1" parent="aO4RC_F3F78ZG80GmeLO-14">
          <mxGeometry y="220" width="310" height="30" as="geometry" />
        </mxCell>
        <mxCell id="aO4RC_F3F78ZG80GmeLO-28" value="" style="shape=partialRectangle;overflow=hidden;connectable=0;fillColor=none;top=0;left=0;bottom=0;right=0;" vertex="1" parent="aO4RC_F3F78ZG80GmeLO-27">
          <mxGeometry width="30" height="30" as="geometry">
            <mxRectangle width="30" height="30" as="alternateBounds" />
          </mxGeometry>
        </mxCell>
        <mxCell id="aO4RC_F3F78ZG80GmeLO-29" value="state char(25)" style="shape=partialRectangle;overflow=hidden;connectable=0;fillColor=none;align=left;top=0;left=0;bottom=0;right=0;spacingLeft=6;" vertex="1" parent="aO4RC_F3F78ZG80GmeLO-27">
          <mxGeometry x="30" width="280" height="30" as="geometry">
            <mxRectangle width="280" height="30" as="alternateBounds" />
          </mxGeometry>
        </mxCell>
        <mxCell id="aO4RC_F3F78ZG80GmeLO-30" value="" style="shape=tableRow;horizontal=0;startSize=0;swimlaneHead=0;swimlaneBody=0;fillColor=none;collapsible=0;dropTarget=0;points=[[0,0.5],[1,0.5]];portConstraint=eastwest;top=0;left=0;right=0;bottom=0;" vertex="1" parent="aO4RC_F3F78ZG80GmeLO-14">
          <mxGeometry y="250" width="310" height="30" as="geometry" />
        </mxCell>
        <mxCell id="aO4RC_F3F78ZG80GmeLO-31" value="" style="shape=partialRectangle;overflow=hidden;connectable=0;fillColor=none;top=0;left=0;bottom=0;right=0;" vertex="1" parent="aO4RC_F3F78ZG80GmeLO-30">
          <mxGeometry width="30" height="30" as="geometry">
            <mxRectangle width="30" height="30" as="alternateBounds" />
          </mxGeometry>
        </mxCell>
        <mxCell id="aO4RC_F3F78ZG80GmeLO-32" value="zip_code char(10)" style="shape=partialRectangle;overflow=hidden;connectable=0;fillColor=none;align=left;top=0;left=0;bottom=0;right=0;spacingLeft=6;" vertex="1" parent="aO4RC_F3F78ZG80GmeLO-30">
          <mxGeometry x="30" width="280" height="30" as="geometry">
            <mxRectangle width="280" height="30" as="alternateBounds" />
          </mxGeometry>
        </mxCell>
      </root>
    </mxGraphModel>
  </diagram>
</mxfile>
